<svg width="348" height="420" viewBox="0 0 348 420" fill="none" xmlns="http://www.w3.org/2000/svg">
<g clip-path="url(#clip0_51_2)">
<path d="M311.499 302.451C310.835 302.64 308.614 303.29 307.997 303.505L295.406 307.422C295.341 307.445 295.271 307.45 295.205 307.437C295.138 307.424 295.077 307.393 295.028 307.348L261.388 285.233C261.179 285.084 260.938 284.98 260.681 284.929C260.424 284.879 260.157 284.883 259.899 284.941L254.644 286.433L277.411 312.33C277.464 312.389 277.501 312.46 277.516 312.538C277.532 312.615 277.526 312.695 277.499 312.771C277.472 312.846 277.426 312.915 277.364 312.968C277.302 313.022 277.227 313.06 277.146 313.078L253.463 320.164C253.217 320.242 252.958 320.263 252.705 320.226C252.453 320.19 252.215 320.096 252.01 319.954L242.403 313.636C241.611 313.077 240.402 312.998 239.446 313.27L235.761 314.316C235.509 314.388 235.61 314.602 235.743 314.81L243.391 326.994C243.886 327.622 244.111 328.412 244.02 329.207L243.899 343.553C243.887 343.948 243.956 344.139 244.404 344.012L247.905 343.018C249.496 342.567 249.657 342.308 250.193 341.102L255.146 330.51C255.247 330.282 255.402 330.079 255.597 329.915C255.792 329.751 256.023 329.633 256.272 329.568L279.996 323.375C280.082 323.352 280.172 323.35 280.259 323.369C280.345 323.387 280.425 323.426 280.491 323.481C280.557 323.536 280.608 323.607 280.639 323.686C280.67 323.765 280.68 323.851 280.668 323.936L274.923 357.86L280.129 356.382C280.379 356.296 280.608 356.159 280.799 355.981C280.991 355.803 281.142 355.589 281.241 355.352L298.299 318.862C298.343 318.728 298.642 318.583 298.777 318.545L311.353 315.316C312.008 315.17 314.22 314.563 314.886 314.374C323.536 311.918 328.365 308.1 327.312 304.393C326.26 300.686 320.175 299.988 311.499 302.451Z" stroke="#1D5F98" stroke-opacity="0.5" stroke-width="4" stroke-linecap="round" stroke-linejoin="round"/>
</g>
<path d="M235.5 338C226.333 353.667 191.394 418 150 418C77.5001 418 25.9947 368.243 36.5001 338C53.0001 290.5 133 268.5 164 252.5C195 236.5 332.5 163.017 323 109.5C311.728 46 235.5 -7.43067 150 3.99991C56.5001 16.5 -36.4999 107 -47.9999 145" stroke="#1D5F98" stroke-opacity="0.5" stroke-width="4" stroke-dasharray="24 24"/>
<defs>
<clipPath id="clip0_51_2">
<rect width="104" height="99" fill="white" transform="translate(220 283.404) rotate(-15.85)"/>
</clipPath>
</defs>
</svg>
