<svg width="41" height="47" viewBox="0 0 41 47" fill="none" xmlns="http://www.w3.org/2000/svg">
<path d="M32.6494 16.625C32.3772 16.625 31.4651 16.6324 31.208 16.6473L26.011 16.7734C25.984 16.775 25.957 16.7695 25.9331 16.7578C25.9092 16.746 25.8893 16.7283 25.8756 16.7066L15.4991 5.01422C15.4362 4.937 15.3559 4.87338 15.2638 4.82776C15.1717 4.78214 15.07 4.75561 14.9658 4.75H12.8125L18.6582 16.6992C18.6721 16.7266 18.6782 16.7568 18.6757 16.787C18.6732 16.8171 18.6623 16.8462 18.644 16.8713C18.6258 16.8963 18.6008 16.9166 18.5716 16.93C18.5423 16.9434 18.5098 16.9496 18.4772 16.9479L8.73251 17.0814C8.63111 17.0843 8.5304 17.0649 8.43858 17.025C8.34675 16.985 8.26638 16.9255 8.204 16.8514L5.24111 13.5115C5.00087 13.2221 4.55083 13.0662 4.15925 13.0662H2.64898C2.54568 13.0662 2.56089 13.156 2.58892 13.2466L4.17767 18.5473C4.29776 18.8311 4.29776 19.1466 4.17767 19.4305L2.58732 24.7148C2.54007 24.8596 2.54568 24.9375 2.72905 24.9375H4.16405C4.81589 24.9375 4.90478 24.8588 5.2379 24.4699L8.25685 21.0781C8.31978 21.0045 8.40026 20.9455 8.49195 20.9056C8.58365 20.8656 8.68408 20.846 8.78536 20.848L18.4492 21.0484C18.4844 21.0492 18.5188 21.0579 18.5496 21.0738C18.5803 21.0896 18.6064 21.1122 18.6256 21.1396C18.6448 21.167 18.6564 21.1982 18.6596 21.2307C18.6628 21.2632 18.6573 21.2959 18.6438 21.326L12.8125 33.25H14.9458C15.0498 33.2444 15.1513 33.2179 15.2432 33.1724C15.3352 33.1269 15.4154 33.0635 15.4783 32.9865L25.8764 21.3008C25.9077 21.2563 26.0366 21.234 26.0918 21.234L31.2088 21.3602C31.4731 21.375 32.3772 21.3824 32.6502 21.3824C36.1953 21.3824 38.4375 20.4792 38.4375 19C38.4375 17.5208 36.2049 16.625 32.6494 16.625Z" fill="#EBEBEB" stroke="#EBEBEB" stroke-width="2" stroke-linecap="round" stroke-linejoin="round"/>
<path d="M12.818 39.1577V38.4545H17.7271V39.1577H15.6688V45H14.8762V39.1577H12.818ZM18.3383 45V40.0909H19.067V40.8324H19.1181C19.2076 40.5895 19.3695 40.3924 19.6039 40.2411C19.8383 40.0898 20.1025 40.0142 20.3965 40.0142C20.4519 40.0142 20.5212 40.0153 20.6043 40.0174C20.6874 40.0195 20.7502 40.0227 20.7928 40.027V40.794C20.7673 40.7876 20.7087 40.7781 20.6171 40.7653C20.5276 40.7504 20.4328 40.7429 20.3326 40.7429C20.094 40.7429 19.8809 40.793 19.6934 40.8931C19.508 40.9911 19.361 41.1275 19.2524 41.3022C19.1458 41.4748 19.0926 41.6719 19.0926 41.8935V45H18.3383ZM21.6869 45V40.0909H22.4412V45H21.6869ZM22.0704 39.2727C21.9234 39.2727 21.7967 39.2227 21.6901 39.1225C21.5857 39.0224 21.5335 38.902 21.5335 38.7614C21.5335 38.6207 21.5857 38.5004 21.6901 38.4002C21.7967 38.3001 21.9234 38.25 22.0704 38.25C22.2175 38.25 22.3432 38.3001 22.4476 38.4002C22.5541 38.5004 22.6074 38.6207 22.6074 38.7614C22.6074 38.902 22.5541 39.0224 22.4476 39.1225C22.3432 39.2227 22.2175 39.2727 22.0704 39.2727ZM23.8227 46.8409V40.0909H24.5514V40.8707H24.6408C24.6962 40.7855 24.7729 40.6768 24.871 40.5447C24.9711 40.4105 25.1139 40.2912 25.2992 40.1868C25.4867 40.0803 25.7403 40.027 26.0599 40.027C26.4732 40.027 26.8376 40.1303 27.1529 40.337C27.4683 40.5437 27.7144 40.8366 27.8912 41.2159C28.068 41.5952 28.1565 42.0426 28.1565 42.5582C28.1565 43.0781 28.068 43.5288 27.8912 43.9102C27.7144 44.2894 27.4693 44.5835 27.1561 44.7923C26.8429 44.9989 26.4818 45.1023 26.0727 45.1023C25.7573 45.1023 25.5048 45.0501 25.3152 44.9457C25.1256 44.8391 24.9796 44.7187 24.8774 44.5845C24.7751 44.4482 24.6962 44.3352 24.6408 44.2457H24.5769V46.8409H23.8227ZM24.5641 42.5455C24.5641 42.9162 24.6185 43.2433 24.7271 43.5266C24.8358 43.8079 24.9945 44.0284 25.2033 44.1882C25.4122 44.3459 25.6678 44.4247 25.9704 44.4247C26.2857 44.4247 26.5489 44.3416 26.7598 44.1754C26.9729 44.0071 27.1327 43.7812 27.2392 43.4979C27.3479 43.2124 27.4022 42.8949 27.4022 42.5455C27.4022 42.2003 27.3489 41.8892 27.2424 41.6122C27.138 41.3331 26.9793 41.1126 26.7662 40.9506C26.5553 40.7866 26.29 40.7045 25.9704 40.7045C25.6636 40.7045 25.4058 40.7823 25.197 40.9379C24.9881 41.0913 24.8305 41.3065 24.7239 41.5835C24.6174 41.8583 24.5641 42.179 24.5641 42.5455Z" fill="white"/>
</svg>
