<svg width="32" height="28" viewBox="0 0 32 28" fill="none" xmlns="http://www.w3.org/2000/svg">
<rect width="32" height="28" rx="4" fill="#1D5F98"/>
<path d="M21.5452 8.13094L20.0894 5.83078C19.7826 5.47313 19.362 5.25 18.8906 5.25H13.8594C13.388 5.25 12.9674 5.47313 12.6606 5.83078L11.2048 8.13094C10.898 8.48914 10.5027 8.75 10.0312 8.75H6.75C6.28587 8.75 5.84075 8.93437 5.51256 9.26256C5.18437 9.59075 5 10.0359 5 10.5V21C5 21.4641 5.18437 21.9092 5.51256 22.2374C5.84075 22.5656 6.28587 22.75 6.75 22.75H26C26.4641 22.75 26.9092 22.5656 27.2374 22.2374C27.5656 21.9092 27.75 21.4641 27.75 21V10.5C27.75 10.0359 27.5656 9.59075 27.2374 9.26256C26.9092 8.93437 26.4641 8.75 26 8.75H22.7734C22.3004 8.75 21.852 8.48914 21.5452 8.13094Z" stroke="#EBEBEB" stroke-width="2" stroke-linecap="round" stroke-linejoin="round"/>
<path d="M16.375 19.25C18.7912 19.25 20.75 17.2912 20.75 14.875C20.75 12.4588 18.7912 10.5 16.375 10.5C13.9588 10.5 12 12.4588 12 14.875C12 17.2912 13.9588 19.25 16.375 19.25Z" stroke="#EBEBEB" stroke-width="2" stroke-miterlimit="10"/>
<path d="M9.15625 8.64062V7.4375H7.84375V8.64062" stroke="#EBEBEB" stroke-width="2" stroke-linecap="round" stroke-linejoin="round"/>
</svg>
