<svg width="34" height="44" viewBox="0 0 34 44" fill="none" xmlns="http://www.w3.org/2000/svg">
<path d="M6.21648 24.9873C6.28996 24.7188 6.12756 24.3455 5.97256 24.0764C5.9243 23.9962 5.87195 23.9184 5.81571 23.8435C4.48635 21.8423 3.77781 19.4978 3.77789 17.1007C3.75628 10.22 9.50415 4.63635 16.6118 4.63635C22.8105 4.63635 27.9847 8.89902 29.1938 14.5574C29.3749 15.3964 29.4664 16.2519 29.4667 17.1099C29.4667 24.0004 23.9405 29.6717 16.8329 29.6717C15.7028 29.6717 14.1775 29.3897 13.3457 29.1586C12.5139 28.9276 11.6834 28.6211 11.4691 28.5389C11.25 28.4553 11.0172 28.4123 10.7824 28.412C10.526 28.4111 10.272 28.4617 10.0358 28.561L5.8472 30.0616C5.75544 30.1008 5.6582 30.126 5.55882 30.1364C5.48039 30.1361 5.40279 30.1204 5.33051 30.0902C5.25824 30.06 5.19272 30.0159 5.13775 29.9603C5.08278 29.9048 5.03946 29.839 5.0103 29.7667C4.98114 29.6944 4.96671 29.6172 4.96785 29.5393C4.973 29.471 4.98542 29.4034 5.00491 29.3376L6.21648 24.9873Z" fill="#EBEBEB" stroke="#EBEBEB" stroke-width="2" stroke-miterlimit="10" stroke-linecap="round"/>
<path d="M12.4566 38.5H11.664C11.6171 38.272 11.5351 38.0717 11.4179 37.8991C11.3029 37.7266 11.1622 37.5817 10.996 37.4645C10.832 37.3452 10.6498 37.2557 10.4495 37.196C10.2492 37.1364 10.0404 37.1065 9.82311 37.1065C9.4268 37.1065 9.06778 37.2067 8.74605 37.407C8.42645 37.6072 8.17183 37.9023 7.9822 38.2923C7.7947 38.6822 7.70095 39.1605 7.70095 39.7273C7.70095 40.294 7.7947 40.7724 7.9822 41.1623C8.17183 41.5522 8.42645 41.8473 8.74605 42.0476C9.06778 42.2479 9.4268 42.348 9.82311 42.348C10.0404 42.348 10.2492 42.3182 10.4495 42.2585C10.6498 42.1989 10.832 42.1104 10.996 41.9933C11.1622 41.8739 11.3029 41.728 11.4179 41.5554C11.5351 41.3807 11.6171 41.1804 11.664 40.9545H12.4566C12.397 41.2891 12.2883 41.5884 12.1306 41.8526C11.973 42.1168 11.7769 42.3416 11.5426 42.527C11.3082 42.7102 11.0451 42.8498 10.7532 42.9457C10.4634 43.0415 10.1534 43.0895 9.82311 43.0895C9.26487 43.0895 8.76842 42.9531 8.33376 42.6804C7.8991 42.4077 7.55713 42.0199 7.30784 41.517C7.05855 41.0142 6.9339 40.4176 6.9339 39.7273C6.9339 39.0369 7.05855 38.4403 7.30784 37.9375C7.55713 37.4347 7.8991 37.0469 8.33376 36.7741C8.76842 36.5014 9.26487 36.3651 9.82311 36.3651C10.1534 36.3651 10.4634 36.413 10.7532 36.5089C11.0451 36.6048 11.3082 36.7454 11.5426 36.9308C11.7769 37.114 11.973 37.3377 12.1306 37.6019C12.2883 37.864 12.397 38.1634 12.4566 38.5ZM14.3894 40.0469V43H13.6352V36.4545H14.3894V38.858H14.4533C14.5684 38.6044 14.741 38.4031 14.9711 38.2539C15.2033 38.1026 15.5123 38.027 15.8979 38.027C16.2325 38.027 16.5254 38.0941 16.7769 38.2283C17.0283 38.3604 17.2232 38.5639 17.3617 38.8388C17.5024 39.1115 17.5727 39.4588 17.5727 39.8807V43H16.8184V39.9318C16.8184 39.5419 16.7172 39.2404 16.5148 39.0273C16.3145 38.8121 16.0364 38.7045 15.6806 38.7045C15.4335 38.7045 15.2119 38.7567 15.0158 38.8612C14.822 38.9656 14.6685 39.1179 14.5556 39.3182C14.4448 39.5185 14.3894 39.7614 14.3894 40.0469ZM20.3972 43.1151C20.0861 43.1151 19.8038 43.0565 19.5502 42.9393C19.2967 42.82 19.0953 42.6484 18.9462 42.4247C18.797 42.1989 18.7224 41.9261 18.7224 41.6065C18.7224 41.3253 18.7778 41.0973 18.8886 40.9226C18.9994 40.7457 19.1475 40.6072 19.3329 40.5071C19.5182 40.407 19.7228 40.3324 19.9465 40.2834C20.1724 40.2322 20.3993 40.1918 20.6273 40.1619C20.9256 40.1236 21.1674 40.0948 21.3528 40.0756C21.5403 40.0543 21.6766 40.0192 21.7619 39.9702C21.8492 39.9212 21.8929 39.8359 21.8929 39.7145V39.6889C21.8929 39.3736 21.8066 39.1286 21.634 38.9538C21.4636 38.7791 21.2047 38.6918 20.8574 38.6918C20.4973 38.6918 20.215 38.7706 20.0104 38.9283C19.8059 39.0859 19.6621 39.2543 19.579 39.4332L18.8631 39.1776C18.9909 38.8793 19.1614 38.647 19.3744 38.4808C19.5896 38.3125 19.824 38.1953 20.0775 38.1293C20.3332 38.0611 20.5847 38.027 20.8318 38.027C20.9895 38.027 21.1706 38.0462 21.3751 38.0845C21.5818 38.1207 21.781 38.1964 21.9728 38.3114C22.1667 38.4265 22.3275 38.6001 22.4554 38.8324C22.5832 39.0646 22.6472 39.3757 22.6472 39.7656V43H21.8929V42.3352H21.8545C21.8034 42.4418 21.7182 42.5558 21.5989 42.6772C21.4795 42.7987 21.3208 42.902 21.1226 42.9872C20.9245 43.0724 20.6827 43.1151 20.3972 43.1151ZM20.5122 42.4375C20.8105 42.4375 21.0619 42.3789 21.2665 42.2617C21.4731 42.1445 21.6287 41.9933 21.7331 41.8079C21.8396 41.6225 21.8929 41.4276 21.8929 41.223V40.5327C21.8609 40.571 21.7906 40.6062 21.682 40.6381C21.5754 40.668 21.4518 40.6946 21.3112 40.718C21.1727 40.7393 21.0374 40.7585 20.9053 40.7756C20.7753 40.7905 20.6699 40.8033 20.5889 40.8139C20.3929 40.8395 20.2097 40.881 20.0392 40.9386C19.8709 40.994 19.7345 41.0781 19.6301 41.1911C19.5278 41.3018 19.4767 41.4531 19.4767 41.6449C19.4767 41.907 19.5736 42.1051 19.7675 42.2393C19.9636 42.3714 20.2118 42.4375 20.5122 42.4375ZM26.1588 38.0909V38.7301H23.6147V38.0909H26.1588ZM24.3562 36.9148H25.1105V41.5938C25.1105 41.8068 25.1414 41.9666 25.2032 42.0732C25.2671 42.1776 25.3481 42.2479 25.4461 42.2841C25.5462 42.3182 25.6517 42.3352 25.7625 42.3352C25.8456 42.3352 25.9138 42.331 25.967 42.3224C26.0203 42.3118 26.0629 42.3033 26.0949 42.2969L26.2483 42.9744C26.1971 42.9936 26.1258 43.0128 26.0341 43.032C25.9425 43.0533 25.8264 43.0639 25.6858 43.0639C25.4727 43.0639 25.2639 43.0181 25.0593 42.9265C24.8569 42.8349 24.6886 42.6953 24.5544 42.5078C24.4223 42.3203 24.3562 42.0838 24.3562 41.7983V36.9148Z" fill="white"/>
</svg>
