<svg width="50" height="50" viewBox="0 0 50 50" fill="none" xmlns="http://www.w3.org/2000/svg">
<circle cx="25" cy="25" r="25" fill="#88B83B"/>
<path d="M14.8507 32.5175C14.9199 32.2648 14.767 31.9135 14.6212 31.6602C14.5757 31.5847 14.5265 31.5115 14.4735 31.441C13.2224 29.5575 12.5555 27.3509 12.5556 25.0948C12.5353 18.6188 17.945 13.3636 24.6346 13.3636C30.4686 13.3636 35.3384 17.3756 36.4764 22.7011C36.6469 23.4907 36.733 24.2959 36.7333 25.1035C36.7333 31.5886 31.5322 36.9263 24.8426 36.9263C23.7791 36.9263 22.3435 36.661 21.5606 36.4435C20.7778 36.226 19.9961 35.9375 19.7944 35.8602C19.5881 35.7815 19.3691 35.741 19.1481 35.7408C18.9067 35.7399 18.6677 35.7875 18.4454 35.881L14.5032 37.2933C14.4168 37.3302 14.3253 37.3539 14.2318 37.3636C14.158 37.3634 14.0849 37.3487 14.0169 37.3202C13.9489 37.2918 13.8872 37.2502 13.8355 37.198C13.7837 37.1457 13.743 37.0838 13.7155 37.0158C13.6881 36.9477 13.6745 36.875 13.6756 36.8017C13.6804 36.7374 13.6921 36.6738 13.7104 36.6119L14.8507 32.5175Z" stroke="#EBEBEB" stroke-width="2" stroke-miterlimit="10" stroke-linecap="round"/>
</svg>
