<svg width="35" height="35" viewBox="0 0 35 35" fill="none" xmlns="http://www.w3.org/2000/svg">
<path d="M17.5 20.7812C19.3122 20.7812 20.7812 19.3122 20.7812 17.5C20.7812 15.6878 19.3122 14.2188 17.5 14.2188C15.6878 14.2188 14.2188 15.6878 14.2188 17.5C14.2188 19.3122 15.6878 20.7812 17.5 20.7812Z" fill="#1D5F98"/>
<path d="M28.4375 20.7812C30.2497 20.7812 31.7188 19.3122 31.7188 17.5C31.7188 15.6878 30.2497 14.2188 28.4375 14.2188C26.6253 14.2188 25.1562 15.6878 25.1562 17.5C25.1562 19.3122 26.6253 20.7812 28.4375 20.7812Z" fill="#1D5F98"/>
<path d="M6.5625 20.7812C8.37468 20.7812 9.84375 19.3122 9.84375 17.5C9.84375 15.6878 8.37468 14.2188 6.5625 14.2188C4.75032 14.2188 3.28125 15.6878 3.28125 17.5C3.28125 19.3122 4.75032 20.7812 6.5625 20.7812Z" fill="#1D5F98"/>
</svg>
