<svg width="38" height="37" viewBox="0 0 38 37" fill="none" xmlns="http://www.w3.org/2000/svg">
<ellipse cx="18.6489" cy="18.5" rx="17.6489" ry="17.5" fill="#EBEBEB" stroke="white" stroke-width="2"/>
<path d="M28.2514 24.2617C27.4694 23.4804 25.5755 22.3403 24.6566 21.8808C23.46 21.2832 23.3615 21.2344 22.4209 21.9272C21.7936 22.3896 21.3765 22.8027 20.6422 22.6474C19.908 22.4922 18.3125 21.6167 16.9155 20.2358C15.5184 18.855 14.5843 17.227 14.4272 16.5014C14.2701 15.7759 14.6936 15.3672 15.1555 14.7436C15.8065 13.8647 15.7573 13.7182 15.2008 12.5317C14.767 11.6089 13.5836 9.74851 12.7928 8.97703C11.9468 8.14842 11.9468 8.2949 11.4017 8.51951C10.9579 8.70466 10.5321 8.92972 10.1297 9.19187C9.3418 9.71092 8.90451 10.1421 8.59871 10.79C8.29291 11.438 8.15552 12.957 9.73476 15.8017C11.314 18.6465 12.422 20.1011 14.7153 22.3686C17.0085 24.6362 18.772 25.8554 21.3499 27.289C24.5389 29.06 25.7621 28.7148 26.4175 28.4121C27.073 28.1094 27.5098 27.6797 28.0342 26.8984C28.2993 26.5001 28.5268 26.0784 28.7138 25.6387C28.9408 25.1001 29.0885 25.1001 28.2514 24.2617Z" stroke="white" stroke-width="2" stroke-miterlimit="10"/>
</svg>
