<svg width="38" height="37" viewBox="0 0 38 37" fill="none" xmlns="http://www.w3.org/2000/svg">
<ellipse cx="19.3511" cy="18.5" rx="17.6489" ry="17.5" fill="#EBEBEB" stroke="white" stroke-width="2"/>
<path d="M25.3058 20.6605L29.3787 23.5033C29.4987 23.5561 29.6301 23.5785 29.761 23.5682C29.8918 23.5579 30.018 23.5154 30.1281 23.4445C30.2382 23.3736 30.3287 23.2765 30.3913 23.1621C30.4539 23.0477 30.4867 22.9196 30.4867 22.7894V13.3773C30.4867 13.2471 30.4539 13.119 30.3913 13.0046C30.3287 12.8902 30.2382 12.7931 30.1281 12.7222C30.018 12.6513 29.8918 12.6087 29.761 12.5985C29.6301 12.5882 29.4987 12.6105 29.3787 12.6634L25.3058 15.5062C25.2025 15.5783 25.1182 15.6739 25.06 15.7851C25.0019 15.8962 24.9715 16.0196 24.9714 16.1449V20.0218C24.9715 20.147 25.0019 20.2704 25.06 20.3816C25.1182 20.4927 25.2025 20.5884 25.3058 20.6605V20.6605Z" stroke="white" stroke-width="2" stroke-linecap="round" stroke-linejoin="round"/>
<path d="M20.047 24.3333H10.9862C10.3077 24.3314 9.65749 24.0633 9.17769 23.5875C8.6979 23.1118 8.42749 22.4671 8.42554 21.7943V14.3724C8.42749 13.6996 8.6979 13.0549 9.17769 12.5792C9.65749 12.1034 10.3077 11.8353 10.9862 11.8333H20.0707C20.7429 11.8354 21.387 12.1011 21.8623 12.5724C22.3377 13.0438 22.6056 13.6824 22.6077 14.349V21.7943C22.6058 22.4671 22.3354 23.1118 21.8556 23.5875C21.3758 24.0633 20.7256 24.3314 20.047 24.3333Z" stroke="white" stroke-width="2" stroke-miterlimit="10"/>
</svg>
