<svg width="35" height="44" viewBox="0 0 35 44" fill="none" xmlns="http://www.w3.org/2000/svg">
<path d="M5.46875 14.0781V29.75C5.46875 30.0318 5.58398 30.302 5.7891 30.5013C5.99422 30.7006 6.27242 30.8125 6.5625 30.8125H13.125V21.7812C13.125 21.3586 13.2979 20.9532 13.6055 20.6543C13.9132 20.3554 14.3305 20.1875 14.7656 20.1875H20.2344C20.6695 20.1875 21.0868 20.3554 21.3945 20.6543C21.7021 20.9532 21.875 21.3586 21.875 21.7812V30.8125H28.4375C28.7276 30.8125 29.0058 30.7006 29.2109 30.5013C29.416 30.302 29.5312 30.0318 29.5312 29.75V14.0781" fill="#EBEBEB"/>
<path d="M5.46875 14.0781V29.75C5.46875 30.0318 5.58398 30.302 5.7891 30.5013C5.99422 30.7006 6.27242 30.8125 6.5625 30.8125H13.125V21.7812C13.125 21.3586 13.2979 20.9532 13.6055 20.6543C13.9132 20.3554 14.3305 20.1875 14.7656 20.1875H20.2344C20.6695 20.1875 21.0868 20.3554 21.3945 20.6543C21.7021 20.9532 21.875 21.3586 21.875 21.7812V30.8125H28.4375C28.7276 30.8125 29.0058 30.7006 29.2109 30.5013C29.416 30.302 29.5312 30.0318 29.5312 29.75V14.0781" stroke="#EBEBEB" stroke-width="2" stroke-linecap="round" stroke-linejoin="round"/>
<path d="M32.8125 17L18.2444 3.45312C17.9026 3.1025 17.1035 3.09852 16.7556 3.45312L2.1875 17M27.3438 11.8867V4.25H24.0625V8.83203" fill="#EBEBEB"/>
<path d="M32.8125 17L18.2444 3.45312C17.9026 3.1025 17.1035 3.09852 16.7556 3.45312L2.1875 17M27.3438 11.8867V4.25H24.0625V8.83203" stroke="#EBEBEB" stroke-width="2" stroke-linecap="round" stroke-linejoin="round"/>
<path d="M5.74623 43V36.4545H6.53884V39.3693H10.0289V36.4545H10.8215V43H10.0289V40.0724H6.53884V43H5.74623ZM14.3004 43.1023C13.8572 43.1023 13.4684 42.9968 13.1338 42.7859C12.8014 42.5749 12.5415 42.2798 12.354 41.9006C12.1686 41.5213 12.0759 41.0781 12.0759 40.571C12.0759 40.0597 12.1686 39.6133 12.354 39.2319C12.5415 38.8505 12.8014 38.5543 13.1338 38.3434C13.4684 38.1325 13.8572 38.027 14.3004 38.027C14.7436 38.027 15.1313 38.1325 15.4637 38.3434C15.7983 38.5543 16.0582 38.8505 16.2436 39.2319C16.4311 39.6133 16.5248 40.0597 16.5248 40.571C16.5248 41.0781 16.4311 41.5213 16.2436 41.9006C16.0582 42.2798 15.7983 42.5749 15.4637 42.7859C15.1313 42.9968 14.7436 43.1023 14.3004 43.1023ZM14.3004 42.4247C14.637 42.4247 14.914 42.3384 15.1313 42.1658C15.3487 41.9933 15.5095 41.7663 15.6139 41.4851C15.7184 41.2038 15.7706 40.8991 15.7706 40.571C15.7706 40.2429 15.7184 39.9371 15.6139 39.6538C15.5095 39.3704 15.3487 39.1413 15.1313 38.9666C14.914 38.7919 14.637 38.7045 14.3004 38.7045C13.9637 38.7045 13.6867 38.7919 13.4694 38.9666C13.2521 39.1413 13.0912 39.3704 12.9868 39.6538C12.8824 39.9371 12.8302 40.2429 12.8302 40.571C12.8302 40.8991 12.8824 41.2038 12.9868 41.4851C13.0912 41.7663 13.2521 41.9933 13.4694 42.1658C13.6867 42.3384 13.9637 42.4247 14.3004 42.4247ZM17.6762 43V38.0909H18.4049V38.858H18.4688C18.5711 38.5959 18.7362 38.3924 18.9642 38.2475C19.1922 38.1005 19.466 38.027 19.7856 38.027C20.1094 38.027 20.379 38.1005 20.5941 38.2475C20.8115 38.3924 20.9809 38.5959 21.1023 38.858H21.1535C21.2792 38.6044 21.4677 38.4031 21.7191 38.2539C21.9706 38.1026 22.2721 38.027 22.6236 38.027C23.0625 38.027 23.4216 38.1644 23.7007 38.4393C23.9798 38.712 24.1194 39.1371 24.1194 39.7145V43H23.3651V39.7145C23.3651 39.3523 23.266 39.0934 23.0679 38.9379C22.8697 38.7823 22.6364 38.7045 22.3679 38.7045C22.0228 38.7045 21.7554 38.8089 21.5657 39.0178C21.3761 39.2244 21.2813 39.4865 21.2813 39.804V43H20.5142V39.6378C20.5142 39.3587 20.4237 39.1339 20.2426 38.9634C20.0615 38.7908 19.8282 38.7045 19.5427 38.7045C19.3466 38.7045 19.1634 38.7567 18.9929 38.8612C18.8246 38.9656 18.6883 39.1104 18.5839 39.2958C18.4816 39.479 18.4304 39.6911 18.4304 39.9318V43H17.6762ZM27.5567 43.1023C27.0837 43.1023 26.6756 42.9979 26.3326 42.7891C25.9917 42.5781 25.7286 42.2841 25.5432 41.907C25.36 41.5277 25.2683 41.0866 25.2683 40.5838C25.2683 40.081 25.36 39.6378 25.5432 39.2543C25.7286 38.8686 25.9864 38.5682 26.3166 38.353C26.649 38.1357 27.0368 38.027 27.48 38.027C27.7357 38.027 27.9881 38.0696 28.2374 38.1548C28.4867 38.2401 28.7136 38.3786 28.9182 38.5703C29.1227 38.7599 29.2857 39.0114 29.4072 39.3246C29.5286 39.6378 29.5894 40.0234 29.5894 40.4815V40.8011H25.8053V40.1491H28.8223C28.8223 39.8722 28.7669 39.625 28.6561 39.4077C28.5475 39.1903 28.3919 39.0188 28.1895 38.8931C27.9892 38.7674 27.7527 38.7045 27.48 38.7045C27.1796 38.7045 26.9196 38.7791 26.7002 38.9283C26.4828 39.0753 26.3156 39.267 26.1984 39.5036C26.0812 39.7401 26.0226 39.9936 26.0226 40.2642V40.6989C26.0226 41.0696 26.0865 41.3839 26.2144 41.6417C26.3443 41.8974 26.5244 42.0923 26.7545 42.2266C26.9846 42.3587 27.252 42.4247 27.5567 42.4247C27.7548 42.4247 27.9338 42.397 28.0936 42.3416C28.2555 42.2841 28.3951 42.1989 28.5123 42.0859C28.6295 41.9709 28.72 41.8281 28.784 41.6577L29.5127 41.8622C29.4359 42.1094 29.307 42.3267 29.1259 42.5142C28.9448 42.6996 28.7211 42.8445 28.4548 42.9489C28.1884 43.0511 27.8891 43.1023 27.5567 43.1023Z" fill="white"/>
</svg>
