<svg width="25" height="25" viewBox="0 0 25 25" fill="none" xmlns="http://www.w3.org/2000/svg">
<path d="M23.0957 1.90674C22.9359 1.74701 22.7334 1.63687 22.5125 1.58957C22.2916 1.54227 22.0617 1.55983 21.8506 1.64014L2.31788 9.0332H2.31397C2.08876 9.11983 1.89577 9.27386 1.76137 9.47426C1.62698 9.67467 1.55772 9.91167 1.56306 10.1529C1.5684 10.3942 1.64808 10.6279 1.79122 10.8221C1.93436 11.0164 2.13397 11.1617 2.3628 11.2383L2.38282 11.2446L9.08692 14.1074C9.21768 14.1471 9.35657 14.1518 9.48971 14.1211C9.62286 14.0903 9.74561 14.0252 9.84571 13.9321L20.6055 3.90625C20.6375 3.87419 20.6756 3.84876 20.7175 3.83141C20.7594 3.81406 20.8043 3.80512 20.8496 3.80512C20.895 3.80512 20.9399 3.81406 20.9817 3.83141C21.0236 3.84876 21.0617 3.87419 21.0938 3.90625C21.1258 3.93831 21.1512 3.97637 21.1686 4.01826C21.186 4.06015 21.1949 4.10505 21.1949 4.15039C21.1949 4.19573 21.186 4.24063 21.1686 4.28252C21.1512 4.32441 21.1258 4.36247 21.0938 4.39453L11.0674 15.1494C10.9744 15.2495 10.9092 15.3723 10.8785 15.5054C10.8477 15.6386 10.8524 15.7774 10.8921 15.9082L13.7559 22.6162C13.7588 22.626 13.7617 22.6348 13.7651 22.644C13.9214 23.0967 14.3169 23.416 14.7949 23.4375H14.8438C15.0851 23.4389 15.3212 23.3676 15.5215 23.233C15.7218 23.0984 15.877 22.9066 15.9668 22.6826L23.3589 3.15527C23.4403 2.94399 23.4588 2.71362 23.4121 2.49205C23.3654 2.27047 23.2555 2.06717 23.0957 1.90674Z" fill="#A17C6B"/>
</svg>
