<svg width="35" height="44" viewBox="0 0 35 44" fill="none" xmlns="http://www.w3.org/2000/svg">
<path d="M23.5156 9.5625C23.2477 13.0734 20.5078 15.9375 17.5 15.9375C14.4922 15.9375 11.7476 13.0741 11.4844 9.5625C11.2109 5.91016 13.8769 3.1875 17.5 3.1875C21.123 3.1875 23.7891 5.97656 23.5156 9.5625Z" stroke="#EBEBEB" stroke-width="2" stroke-linecap="round" stroke-linejoin="round"/>
<path d="M17.5 20.1875C11.5527 20.1875 5.51658 23.375 4.39959 29.3914C4.26492 30.1166 4.68739 30.8125 5.46873 30.8125H29.5312C30.3133 30.8125 30.7357 30.1166 30.6011 29.3914C29.4834 23.375 23.4472 20.1875 17.5 20.1875Z" stroke="#EBEBEB" stroke-width="2" stroke-miterlimit="10"/>
<path d="M4.77504 43V36.4545H6.98668C7.50018 36.4545 7.91992 36.5472 8.24592 36.7326C8.57404 36.9158 8.81694 37.1641 8.97461 37.4773C9.13228 37.7905 9.21112 38.1399 9.21112 38.5256C9.21112 38.9112 9.13228 39.2617 8.97461 39.5771C8.81907 39.8924 8.5783 40.1438 8.25231 40.3313C7.92631 40.5167 7.5087 40.6094 6.99947 40.6094H5.41424V39.9062H6.9739C7.32546 39.9062 7.60778 39.8455 7.82085 39.7241C8.03391 39.6026 8.18839 39.4386 8.28427 39.2319C8.38228 39.0231 8.43129 38.7876 8.43129 38.5256C8.43129 38.2635 8.38228 38.0291 8.28427 37.8224C8.18839 37.6158 8.03285 37.4538 7.81765 37.3366C7.60245 37.2173 7.31694 37.1577 6.96112 37.1577H5.56765V43H4.77504ZM10.3857 43V38.0909H11.1143V38.8324H11.1655C11.255 38.5895 11.4169 38.3924 11.6513 38.2411C11.8857 38.0898 12.1499 38.0142 12.4439 38.0142C12.4993 38.0142 12.5685 38.0153 12.6516 38.0174C12.7347 38.0195 12.7976 38.0227 12.8402 38.027V38.794C12.8146 38.7876 12.756 38.7781 12.6644 38.7653C12.5749 38.7504 12.4801 38.7429 12.38 38.7429C12.1413 38.7429 11.9283 38.793 11.7408 38.8931C11.5554 38.9911 11.4084 39.1275 11.2997 39.3022C11.1932 39.4748 11.1399 39.6719 11.1399 39.8935V43H10.3857ZM15.5792 43.1023C15.136 43.1023 14.7472 42.9968 14.4126 42.7859C14.0803 42.5749 13.8203 42.2798 13.6328 41.9006C13.4474 41.5213 13.3548 41.0781 13.3548 40.571C13.3548 40.0597 13.4474 39.6133 13.6328 39.2319C13.8203 38.8505 14.0803 38.5543 14.4126 38.3434C14.7472 38.1325 15.136 38.027 15.5792 38.027C16.0224 38.027 16.4102 38.1325 16.7425 38.3434C17.0771 38.5543 17.337 38.8505 17.5224 39.2319C17.7099 39.6133 17.8036 40.0597 17.8036 40.571C17.8036 41.0781 17.7099 41.5213 17.5224 41.9006C17.337 42.2798 17.0771 42.5749 16.7425 42.7859C16.4102 42.9968 16.0224 43.1023 15.5792 43.1023ZM15.5792 42.4247C15.9158 42.4247 16.1928 42.3384 16.4102 42.1658C16.6275 41.9933 16.7884 41.7663 16.8928 41.4851C16.9972 41.2038 17.0494 40.8991 17.0494 40.571C17.0494 40.2429 16.9972 39.9371 16.8928 39.6538C16.7884 39.3704 16.6275 39.1413 16.4102 38.9666C16.1928 38.7919 15.9158 38.7045 15.5792 38.7045C15.2425 38.7045 14.9656 38.7919 14.7482 38.9666C14.5309 39.1413 14.37 39.3704 14.2656 39.6538C14.1612 39.9371 14.109 40.2429 14.109 40.571C14.109 40.8991 14.1612 41.2038 14.2656 41.4851C14.37 41.7663 14.5309 41.9933 14.7482 42.1658C14.9656 42.3384 15.2425 42.4247 15.5792 42.4247ZM21.1411 38.0909V38.7301H18.4948V38.0909H21.1411ZM19.2874 43V37.4134C19.2874 37.1321 19.3534 36.8977 19.4855 36.7102C19.6176 36.5227 19.7892 36.3821 20.0001 36.2884C20.211 36.1946 20.4337 36.1477 20.6681 36.1477C20.8534 36.1477 21.0047 36.1626 21.1219 36.1925C21.2391 36.2223 21.3264 36.25 21.384 36.2756L21.1666 36.9276C21.1283 36.9148 21.075 36.8988 21.0068 36.8796C20.9408 36.8604 20.8534 36.8509 20.7448 36.8509C20.4955 36.8509 20.3154 36.9137 20.2046 37.0394C20.096 37.1651 20.0416 37.3494 20.0416 37.5923V43H19.2874ZM22.1982 43V38.0909H22.9524V43H22.1982ZM22.5817 37.2727C22.4347 37.2727 22.3079 37.2227 22.2013 37.1225C22.0969 37.0224 22.0447 36.902 22.0447 36.7614C22.0447 36.6207 22.0969 36.5004 22.2013 36.4002C22.3079 36.3001 22.4347 36.25 22.5817 36.25C22.7287 36.25 22.8544 36.3001 22.9588 36.4002C23.0653 36.5004 23.1186 36.6207 23.1186 36.7614C23.1186 36.902 23.0653 37.0224 22.9588 37.1225C22.8544 37.2227 22.7287 37.2727 22.5817 37.2727ZM25.0882 36.4545V43H24.3339V36.4545H25.0882ZM28.5279 43.1023C28.0549 43.1023 27.6468 42.9979 27.3038 42.7891C26.9629 42.5781 26.6998 42.2841 26.5144 41.907C26.3311 41.5277 26.2395 41.0866 26.2395 40.5838C26.2395 40.081 26.3311 39.6378 26.5144 39.2543C26.6998 38.8686 26.9576 38.5682 27.2878 38.353C27.6202 38.1357 28.008 38.027 28.4512 38.027C28.7069 38.027 28.9593 38.0696 29.2086 38.1548C29.4579 38.2401 29.6848 38.3786 29.8894 38.5703C30.0939 38.7599 30.2569 39.0114 30.3784 39.3246C30.4998 39.6378 30.5605 40.0234 30.5605 40.4815V40.8011H26.7765V40.1491H29.7935C29.7935 39.8722 29.7381 39.625 29.6273 39.4077C29.5186 39.1903 29.3631 39.0188 29.1607 38.8931C28.9604 38.7674 28.7239 38.7045 28.4512 38.7045C28.1507 38.7045 27.8908 38.7791 27.6713 38.9283C27.454 39.0753 27.2868 39.267 27.1696 39.5036C27.0524 39.7401 26.9938 39.9936 26.9938 40.2642V40.6989C26.9938 41.0696 27.0577 41.3839 27.1855 41.6417C27.3155 41.8974 27.4956 42.0923 27.7257 42.2266C27.9558 42.3587 28.2232 42.4247 28.5279 42.4247C28.726 42.4247 28.905 42.397 29.0648 42.3416C29.2267 42.2841 29.3663 42.1989 29.4835 42.0859C29.6007 41.9709 29.6912 41.8281 29.7551 41.6577L30.4838 41.8622C30.4071 42.1094 30.2782 42.3267 30.0971 42.5142C29.916 42.6996 29.6923 42.8445 29.426 42.9489C29.1596 43.0511 28.8603 43.1023 28.5279 43.1023Z" fill="white"/>
</svg>
