<svg width="26" height="25" viewBox="0 0 26 25" fill="none" xmlns="http://www.w3.org/2000/svg">
<path d="M17.0625 4.6875C17.0624 3.94839 16.8443 3.22447 16.4334 2.59981C16.0226 1.97515 15.4358 1.4754 14.7413 1.15859C14.0468 0.841788 13.2731 0.720933 12.5101 0.810066C11.747 0.899199 11.0259 1.19466 10.4305 1.66214C9.83513 2.12961 9.38989 2.74991 9.14651 3.45099C8.90313 4.15207 8.8716 4.90516 9.05559 5.62278C9.23957 6.34041 9.63152 6.99311 10.1859 7.50509C10.7403 8.01707 11.4344 8.36731 12.1875 8.51513V22.3418C12.1876 22.5494 12.2306 22.7548 12.3139 22.9463L12.8253 24.1182C12.8424 24.1483 12.8677 24.1735 12.8984 24.191C12.9292 24.2085 12.9643 24.2178 13 24.2178C13.0357 24.2178 13.0708 24.2085 13.1016 24.191C13.1323 24.1735 13.1576 24.1483 13.1747 24.1182L13.6861 22.9463C13.7694 22.7548 13.8124 22.5494 13.8125 22.3418V8.51513C14.7295 8.33395 15.5534 7.8543 16.1454 7.15705C16.7374 6.45981 17.0613 5.58761 17.0625 4.6875ZM14.2188 4.6875C13.9777 4.6875 13.7421 4.61877 13.5416 4.49C13.3412 4.36123 13.185 4.17821 13.0928 3.96408C13.0005 3.74995 12.9764 3.51432 13.0234 3.287C13.0704 3.05968 13.1865 2.85087 13.357 2.68698C13.5274 2.52309 13.7446 2.41148 13.981 2.36627C14.2174 2.32105 14.4624 2.34426 14.6851 2.43295C14.9078 2.52165 15.0982 2.67185 15.2321 2.86456C15.366 3.05728 15.4375 3.28385 15.4375 3.51562C15.4375 3.82642 15.3091 4.1245 15.0805 4.34426C14.852 4.56403 14.542 4.6875 14.2188 4.6875Z" fill="#A17C6B"/>
</svg>
