<svg width="34" height="44" viewBox="0 0 34 44" fill="none" xmlns="http://www.w3.org/2000/svg">
<path d="M14.3556 4.63635C12.4129 4.63635 10.5139 5.22551 8.89862 6.32932C7.28336 7.43312 6.02442 9.00201 5.281 10.8376C4.53758 12.6731 4.34307 14.6929 4.72206 16.6416C5.10105 18.5902 6.03653 20.3801 7.41019 21.785C8.78385 23.1899 10.534 24.1466 12.4393 24.5342C14.3447 24.9218 16.3196 24.7229 18.1144 23.9626C19.9091 23.2023 21.4431 21.9147 22.5224 20.2628C23.6017 18.6108 24.1778 16.6686 24.1778 14.6818C24.1776 12.0176 23.1427 9.46264 21.3007 7.57878C19.4587 5.69493 16.9605 4.63652 14.3556 4.63635V4.63635Z" stroke="#EBEBEB" stroke-width="4" stroke-miterlimit="10"/>
<path d="M21.9111 22.4091L28.7111 29.3637" stroke="#EBEBEB" stroke-width="4" stroke-miterlimit="10" stroke-linecap="round"/>
<path d="M7.07577 38.0909C7.03742 37.767 6.88188 37.5156 6.60915 37.3366C6.33643 37.1577 6.00191 37.0682 5.6056 37.0682C5.31583 37.0682 5.06228 37.1151 4.84495 37.2088C4.62975 37.3026 4.46143 37.4315 4.33998 37.5955C4.22066 37.7596 4.161 37.946 4.161 38.1548C4.161 38.3295 4.20255 38.4798 4.28564 38.6055C4.37087 38.729 4.47954 38.8324 4.61164 38.9155C4.74374 38.9964 4.88224 39.0636 5.02712 39.1168C5.17201 39.168 5.30518 39.2095 5.42662 39.2415L6.0914 39.4205C6.26185 39.4652 6.45148 39.527 6.66029 39.6058C6.87123 39.6847 7.07258 39.7923 7.26434 39.9286C7.45823 40.0629 7.61803 40.2354 7.74374 40.4464C7.86945 40.6573 7.93231 40.9162 7.93231 41.223C7.93231 41.5767 7.83962 41.8963 7.65425 42.1818C7.47101 42.4673 7.20255 42.6942 6.84885 42.8626C6.49729 43.0309 6.07009 43.1151 5.56725 43.1151C5.0985 43.1151 4.6926 43.0394 4.34957 42.8881C4.00866 42.7369 3.74019 42.5259 3.54417 42.2553C3.35028 41.9847 3.24055 41.6705 3.21498 41.3125H4.03316C4.05447 41.5597 4.13756 41.7642 4.28245 41.9261C4.42947 42.0859 4.61483 42.2053 4.83856 42.2841C5.06441 42.3608 5.30731 42.3991 5.56725 42.3991C5.86981 42.3991 6.14147 42.3501 6.38224 42.2521C6.623 42.152 6.8137 42.0135 6.95432 41.8366C7.09495 41.6577 7.16526 41.4489 7.16526 41.2102C7.16526 40.9929 7.10454 40.8161 6.98309 40.6797C6.86164 40.5433 6.70184 40.4325 6.50368 40.3473C6.30553 40.2621 6.0914 40.1875 5.86128 40.1236L5.05589 39.8935C4.54452 39.7464 4.13969 39.5366 3.8414 39.2638C3.5431 38.9911 3.39395 38.6342 3.39395 38.1932C3.39395 37.8267 3.49303 37.5071 3.69118 37.2344C3.89147 36.9595 4.15993 36.7464 4.49658 36.5952C4.83536 36.4418 5.21356 36.3651 5.63117 36.3651C6.05305 36.3651 6.42805 36.4407 6.75617 36.592C7.0843 36.7411 7.34424 36.9457 7.536 37.2056C7.72989 37.4656 7.83216 37.7607 7.84282 38.0909H7.07577ZM11.1915 43.1023C10.7184 43.1023 10.3104 42.9979 9.96737 42.7891C9.62646 42.5781 9.36333 42.2841 9.17796 41.907C8.99472 41.5277 8.9031 41.0866 8.9031 40.5838C8.9031 40.081 8.99472 39.6378 9.17796 39.2543C9.36333 38.8686 9.62114 38.5682 9.95139 38.353C10.2838 38.1357 10.6716 38.027 11.1147 38.027C11.3704 38.027 11.6229 38.0696 11.8722 38.1548C12.1215 38.2401 12.3484 38.3786 12.553 38.5703C12.7575 38.7599 12.9205 39.0114 13.0419 39.3246C13.1634 39.6378 13.2241 40.0234 13.2241 40.4815V40.8011H9.44003V40.1491H12.4571C12.4571 39.8722 12.4017 39.625 12.2909 39.4077C12.1822 39.1903 12.0267 39.0188 11.8243 38.8931C11.624 38.7674 11.3875 38.7045 11.1147 38.7045C10.8143 38.7045 10.5544 38.7791 10.3349 38.9283C10.1176 39.0753 9.95033 39.267 9.83314 39.5036C9.71595 39.7401 9.65736 39.9936 9.65736 40.2642V40.6989C9.65736 41.0696 9.72128 41.3839 9.84912 41.6417C9.97909 41.8974 10.1591 42.0923 10.3892 42.2266C10.6194 42.3587 10.8868 42.4247 11.1915 42.4247C11.3896 42.4247 11.5686 42.397 11.7284 42.3416C11.8903 42.2841 12.0299 42.1989 12.1471 42.0859C12.2642 41.9709 12.3548 41.8281 12.4187 41.6577L13.1474 41.8622C13.0707 42.1094 12.9418 42.3267 12.7607 42.5142C12.5796 42.6996 12.3559 42.8445 12.0895 42.9489C11.8232 43.0511 11.5238 43.1023 11.1915 43.1023ZM15.8161 43.1151C15.505 43.1151 15.2227 43.0565 14.9691 42.9393C14.7156 42.82 14.5142 42.6484 14.3651 42.4247C14.216 42.1989 14.1414 41.9261 14.1414 41.6065C14.1414 41.3253 14.1968 41.0973 14.3076 40.9226C14.4184 40.7457 14.5665 40.6072 14.7518 40.5071C14.9372 40.407 15.1417 40.3324 15.3655 40.2834C15.5913 40.2322 15.8182 40.1918 16.0462 40.1619C16.3445 40.1236 16.5863 40.0948 16.7717 40.0756C16.9592 40.0543 17.0956 40.0192 17.1808 39.9702C17.2682 39.9212 17.3118 39.8359 17.3118 39.7145V39.6889C17.3118 39.3736 17.2255 39.1286 17.053 38.9538C16.8825 38.7791 16.6236 38.6918 16.2763 38.6918C15.9162 38.6918 15.6339 38.7706 15.4294 38.9283C15.2248 39.0859 15.081 39.2543 14.9979 39.4332L14.282 39.1776C14.4098 38.8793 14.5803 38.647 14.7934 38.4808C15.0086 38.3125 15.2429 38.1953 15.4965 38.1293C15.7522 38.0611 16.0036 38.027 16.2508 38.027C16.4084 38.027 16.5895 38.0462 16.7941 38.0845C17.0008 38.1207 17.2 38.1964 17.3917 38.3114C17.5856 38.4265 17.7465 38.6001 17.8743 38.8324C18.0022 39.0646 18.0661 39.3757 18.0661 39.7656V43H17.3118V42.3352H17.2735C17.2223 42.4418 17.1371 42.5558 17.0178 42.6772C16.8985 42.7987 16.7397 42.902 16.5416 42.9872C16.3434 43.0724 16.1016 43.1151 15.8161 43.1151ZM15.9312 42.4375C16.2294 42.4375 16.4809 42.3789 16.6854 42.2617C16.8921 42.1445 17.0476 41.9933 17.152 41.8079C17.2586 41.6225 17.3118 41.4276 17.3118 41.223V40.5327C17.2799 40.571 17.2096 40.6062 17.1009 40.6381C16.9944 40.668 16.8708 40.6946 16.7302 40.718C16.5917 40.7393 16.4564 40.7585 16.3243 40.7756C16.1943 40.7905 16.0888 40.8033 16.0079 40.8139C15.8118 40.8395 15.6286 40.881 15.4581 40.9386C15.2898 40.994 15.1535 41.0781 15.0491 41.1911C14.9468 41.3018 14.8956 41.4531 14.8956 41.6449C14.8956 41.907 14.9926 42.1051 15.1865 42.2393C15.3825 42.3714 15.6307 42.4375 15.9312 42.4375ZM19.4428 43V38.0909H20.1715V38.8324H20.2226C20.3121 38.5895 20.474 38.3924 20.7084 38.2411C20.9428 38.0898 21.207 38.0142 21.501 38.0142C21.5564 38.0142 21.6257 38.0153 21.7088 38.0174C21.7919 38.0195 21.8547 38.0227 21.8973 38.027V38.794C21.8718 38.7876 21.8132 38.7781 21.7215 38.7653C21.6321 38.7504 21.5372 38.7429 21.4371 38.7429C21.1985 38.7429 20.9854 38.793 20.7979 38.8931C20.6125 38.9911 20.4655 39.1275 20.3568 39.3022C20.2503 39.4748 20.197 39.6719 20.197 39.8935V43H19.4428ZM24.6363 43.1023C24.1761 43.1023 23.7798 42.9936 23.4474 42.7763C23.115 42.5589 22.8593 42.2596 22.6804 41.8782C22.5014 41.4968 22.4119 41.0611 22.4119 40.571C22.4119 40.0724 22.5035 39.6325 22.6867 39.2511C22.8721 38.8675 23.1299 38.5682 23.4602 38.353C23.7926 38.1357 24.1804 38.027 24.6235 38.027C24.9687 38.027 25.2798 38.0909 25.5568 38.2188C25.8338 38.3466 26.0607 38.5256 26.2375 38.7557C26.4144 38.9858 26.5241 39.2543 26.5667 39.5611H25.8125C25.7549 39.3374 25.6271 39.1392 25.4289 38.9666C25.2329 38.7919 24.9687 38.7045 24.6363 38.7045C24.3423 38.7045 24.0845 38.7812 23.8629 38.9347C23.6434 39.0859 23.4719 39.3001 23.3483 39.5771C23.2269 39.8519 23.1661 40.1747 23.1661 40.5455C23.1661 40.9247 23.2258 41.255 23.3451 41.5362C23.4666 41.8175 23.637 42.0359 23.8565 42.1914C24.0781 42.3469 24.338 42.4247 24.6363 42.4247C24.8323 42.4247 25.0103 42.3906 25.1701 42.3224C25.3299 42.2543 25.4652 42.1562 25.576 42.0284C25.6867 41.9006 25.7656 41.7472 25.8125 41.5682H26.5667C26.5241 41.858 26.4186 42.119 26.2503 42.3512C26.0841 42.5813 25.8636 42.7646 25.5887 42.9009C25.316 43.0352 24.9985 43.1023 24.6363 43.1023ZM28.4236 40.0469V43H27.6693V36.4545H28.4236V38.858H28.4875C28.6026 38.6044 28.7752 38.4031 29.0053 38.2539C29.2375 38.1026 29.5465 38.027 29.9321 38.027C30.2666 38.027 30.5596 38.0941 30.811 38.2283C31.0625 38.3604 31.2574 38.5639 31.3959 38.8388C31.5365 39.1115 31.6068 39.4588 31.6068 39.8807V43H30.8526V39.9318C30.8526 39.5419 30.7514 39.2404 30.549 39.0273C30.3487 38.8121 30.0706 38.7045 29.7148 38.7045C29.4676 38.7045 29.246 38.7567 29.05 38.8612C28.8561 38.9656 28.7027 39.1179 28.5898 39.3182C28.479 39.5185 28.4236 39.7614 28.4236 40.0469Z" fill="white"/>
</svg>
